<?xml version="1.0" encoding="UTF-8" standalone="no"?>
<!-- Created with Inkscape (http://www.inkscape.org/) -->

<svg
   version="1.1"
   id="svg1"
   width="500"
   height="500"
   viewBox="0 0 500 500"
   xmlns="http://www.w3.org/2000/svg"
   xmlns:svg="http://www.w3.org/2000/svg">
  <defs
     id="defs1" />
  <g
     id="g1">
    <path
       style="fill:#2a5da6"
       d="m 71.189512,311.32262 c -3.078315,-0.42346 -8.028315,-1.85201 -11,-3.17456 -2.971685,-1.32256 -7.751805,-4.52667 -10.622489,-7.12027 -3.243894,-2.93078 -6.370151,-7.05655 -8.259684,-10.90044 -1.672142,-3.40165 -3.52714,-8.95848 -4.12222,-12.34851 -0.764462,-4.35497 -0.774064,-8.14138 -0.03272,-12.90319 0.577083,-3.70672 2.276625,-9.25806 3.776759,-12.33631 1.500134,-3.07824 5.204371,-8.0228 8.231638,-10.9879 3.205762,-3.13993 8.243704,-6.68928 12.064887,-8.5 5.980411,-2.8339 7.445351,-3.10891 16.560766,-3.10891 9.166209,0 10.560585,0.26556 16.723329,3.18498 3.697832,1.75174 8.989252,5.30449 11.758722,7.895 2.92968,2.74037 6.31319,7.3056 8.091,10.91684 1.68058,3.41375 3.56232,9.16498 4.18163,12.78052 0.83781,4.89107 0.83467,8.14044 -0.0123,12.6946 -0.62606,3.36649 -2.22376,8.46251 -3.55043,11.32448 -1.32667,2.86197 -4.24317,7.26137 -6.48112,9.77645 -2.23795,2.51508 -6.68842,5.96833 -9.889931,7.67389 -3.201512,1.70557 -7.84593,3.55835 -10.32093,4.11729 -2.475,0.55895 -6.075,1.18946 -8,1.40112 -1.925,0.21167 -6.018622,0.0384 -9.096937,-0.38508 z m 8.51515,-12.48708 c 0.869983,-0.33384 1.581787,-1.46998 1.581787,-2.52475 0,-1.17359 1.067114,-2.32089 2.75,-2.95663 1.5125,-0.57138 3.977098,-2.20946 5.476885,-3.64019 1.499786,-1.43073 3.226622,-4.11555 3.837411,-5.96626 0.809637,-2.45322 0.812515,-4.2198 0.01062,-6.52012 -0.604948,-1.73536 -1.847538,-3.98132 -2.761311,-4.99102 -0.913773,-1.00971 -5.401083,-2.97651 -9.971801,-4.37066 -4.570718,-1.39416 -8.992463,-3.2169 -9.8261,-4.05053 -0.833637,-0.83364 -1.515704,-2.5759 -1.515704,-3.8717 0,-1.35415 1.120428,-3.23732 2.634859,-4.42857 1.449172,-1.13992 3.983537,-2.07258 5.631923,-2.07258 2.140496,0 3.958487,1.01941 6.361009,3.56682 2.552264,2.70619 4.026423,3.49038 6.109527,3.25 1.55905,-0.1799 2.877906,-1.01547 3.051775,-1.93347 0.168407,-0.88916 -0.931734,-3.08785 -2.444758,-4.88598 -1.513023,-1.79812 -4.20219,-3.87568 -5.975924,-4.6168 -2.060969,-0.86113 -3.341092,-2.16555 -3.546692,-3.61402 -0.245439,-1.72915 -1.074021,-2.33948 -3.494619,-2.57416 -2.657302,-0.25762 -3.226054,0.0649 -3.5,1.98497 -0.21416,1.50101 -1.835339,3.12303 -4.69532,4.69775 -3.147901,1.73325 -4.893182,3.59193 -6.247354,6.65326 -1.209393,2.73403 -1.663258,5.32747 -1.273438,7.27657 0.333132,1.66566 1.794441,4.1615 3.247353,5.5463 1.59662,1.52178 5.608655,3.33051 10.141659,4.57214 4.550814,1.2465 8.188143,2.88871 9.25,4.17625 0.9625,1.16707 1.75,2.71028 1.75,3.42937 0,0.71908 -0.279532,2.03587 -0.621181,2.9262 -0.34165,0.89032 -1.894303,2.27713 -3.45034,3.08179 -1.556038,0.80465 -4.035871,1.46301 -5.510742,1.46301 -1.778821,0 -3.814064,-1.20078 -6.045528,-3.56682 -2.522212,-2.67432 -4.033793,-3.48755 -6.040958,-3.25 -1.472357,0.17425 -2.822431,0.76682 -3.000165,1.31682 -0.177733,0.55 0.593581,2.50383 1.714032,4.34184 1.192687,1.9565 3.669861,4.02921 5.975707,5 2.600165,1.09469 4.267568,2.59264 4.906831,4.40816 0.532568,1.5125 1.629909,2.75 2.438537,2.75 0.808628,0 2.182036,-0.27314 3.05202,-0.60699 z m 342.678188,0.34225 c -1.32198,-0.67939 -3.2888,-2.42784 -4.37072,-3.88543 -1.08191,-1.45759 -1.66123,-3.14509 -1.28738,-3.75 0.37385,-0.60491 1.7964,-1.09983 3.16121,-1.09983 1.36481,0 3.75785,0.94367 5.31787,2.09703 1.56001,1.15337 3.6316,1.94087 4.60352,1.75 0.97193,-0.19086 2.65666,-1.53961 3.74384,-2.9972 1.08718,-1.45759 1.67006,-3.14631 1.29529,-3.7527 -0.46983,-0.76019 -1.26316,-0.79119 -2.55498,-0.0998 -1.03046,0.55148 -3.14065,1.00102 -4.68931,0.99896 -1.54866,-0.002 -4.24952,-0.87797 -6.00192,-1.94649 -1.7524,-1.06851 -3.65057,-2.81047 -4.21815,-3.87101 -0.56759,-1.06055 -1.32144,-3.73847 -1.67523,-5.95094 -0.35547,-2.223 -0.13305,-5.5686 0.49718,-7.47819 0.62723,-1.90054 2.18031,-4.43245 3.45127,-5.62646 1.27097,-1.19401 3.78606,-2.59402 5.5891,-3.11112 2.37118,-0.68005 4.20793,-0.55174 6.63828,0.46373 1.99674,0.83429 3.59573,1.02258 3.94091,0.46407 0.31947,-0.51695 1.9043,-0.93988 3.52184,-0.93988 h 2.94098 v 15.54966 c 0,11.94318 -0.35183,16.23002 -1.51693,18.48307 -0.83431,1.61338 -2.83696,3.61603 -4.45034,4.45034 -1.61337,0.83431 -4.86826,1.5103 -7.23307,1.50219 -2.36481,-0.008 -5.38128,-0.57061 -6.70326,-1.25 z M 432.972,280.26822 c 1.58875,-1.49256 2.31445,-3.3041 2.31445,-5.7775 0,-1.98175 -0.70052,-4.60331 -1.5567,-5.82568 -0.85619,-1.22238 -2.57018,-2.22251 -3.80887,-2.22251 -1.2387,0 -3.04303,0.57829 -4.00963,1.28509 -0.9666,0.70679 -1.99546,3.06929 -2.28635,5.25 -0.41208,3.08929 -0.0501,4.57223 1.63891,6.71491 1.19229,1.5125 2.89364,2.75 3.78077,2.75 0.88713,0 2.65447,-0.97844 3.92742,-2.17431 z m -286.01888,8.50764 c -0.36667,-0.36666 -0.66667,-3.56399 -0.66667,-7.10517 0,-6.00011 -0.44201,-7.27172 -6.49151,-18.67516 -3.57033,-6.73016 -6.19533,-12.53283 -5.83333,-12.89483 0.362,-0.36199 2.12075,-0.65817 3.90835,-0.65817 3.00944,0 3.539,0.53698 7.14977,7.25 2.14479,3.9875 4.46453,7.25 5.15498,7.25 0.69046,0 2.91056,-3.15 4.93356,-7 3.28991,-6.26107 4.02198,-7.03313 6.93506,-7.31387 2.04776,-0.19735 3.4487,0.18602 3.77357,1.03263 0.28419,0.74057 -2.19391,6.21111 -5.50687,12.15673 -5.69155,10.21435 -6.02358,11.17995 -6.02358,17.51737 0,3.88333 -0.50522,7.21236 -1.2,7.90714 -0.66,0.66 -2.16,1.2 -3.33333,1.2 -1.17334,0 -2.43334,-0.3 -2.8,-0.66667 z m 22.52569,-1.00892 c -1.91031,-0.94143 -4.12819,-3.23847 -5.25,-5.43739 -1.0683,-2.09404 -1.94236,-5.51979 -1.94236,-7.61278 0,-2.093 0.83839,-5.37342 1.8631,-7.28984 1.0247,-1.91642 3.33219,-4.3469 5.12775,-5.40107 1.83118,-1.07507 5.12838,-1.91666 7.50915,-1.91666 2.38766,0 5.72214,0.85336 7.62224,1.95068 1.85777,1.07288 4.16456,3.51038 5.12621,5.41667 0.96164,1.90629 1.74914,5.16793 1.75,7.2481 8.5e-4,2.08016 -0.62182,5.27405 -1.38372,7.09753 -0.7619,1.82348 -2.95251,4.28403 -4.86803,5.46788 -2.20392,1.3621 -5.0918,2.14411 -7.86473,2.1297 -2.41009,-0.0125 -5.87041,-0.75629 -7.68961,-1.65282 z m 11.61908,-6.36337 c 1.61965,-1.50893 2.18856,-3.19859 2.18856,-6.5 0,-3.12771 -0.59777,-5.05881 -2,-6.46104 -1.1,-1.1 -3.09234,-2 -4.42742,-2 -1.43131,0 -3.27792,1.08123 -4.5,2.63486 -1.17661,1.49582 -2.07258,4.10924 -2.07258,6.04545 0,2.2878 0.80806,4.21866 2.45455,5.86514 1.35,1.35 3.29014,2.45455 4.31143,2.45455 1.0213,0 2.84175,-0.91753 4.04546,-2.03896 z m 17.54888,6.57879 c -1.14658,-0.8031 -2.61408,-2.73825 -3.26112,-4.30035 -0.71211,-1.71918 -1.06252,-6.76722 -0.88782,-12.78982 l 0.28862,-9.94966 3.21569,-0.3108 c 2.66537,-0.25761 3.30681,0.0847 3.74815,2 0.29285,1.27094 0.64579,5.85772 0.78431,10.19284 0.21932,6.86382 0.53657,8.07056 2.45587,9.34144 2.01921,1.33703 2.41749,1.24592 4.75,-1.08659 2.3553,-2.3553 2.54598,-3.22819 2.54598,-11.65479 v -9.10882 l 3.25,0.31336 3.25,0.31336 v 14 c 0,13.8564 -0.0236,14.00335 -2.30504,14.32676 -1.26778,0.17972 -2.92651,-0.189 -3.68608,-0.81939 -0.99673,-0.82721 -1.93708,-0.84857 -3.37922,-0.0768 -1.099,0.58816 -3.50263,1.06939 -5.34141,1.06939 -1.83878,0 -4.28135,-0.65708 -5.42793,-1.46017 z m 26.85945,0.61716 c -0.96017,-0.60929 -1.21017,-4.16789 -1,-14.23469 l 0.28023,-13.4223 2.87182,-0.32818 c 1.5795,-0.1805 3.31429,0.11429 3.85507,0.65507 0.64434,0.64434 2.08544,0.52273 4.18085,-0.35279 1.75869,-0.73482 3.77244,-0.98078 4.47501,-0.54657 0.70642,0.4366 1.12986,2.08194 0.94733,3.68098 -0.25263,2.213 -0.9167,2.97155 -2.83008,3.23267 -1.375,0.18764 -3.2875,1.04489 -4.25,1.90498 -1.36856,1.22296 -1.75,3.17911 -1.75,8.97457 0,4.07591 -0.46583,8.28117 -1.03518,9.34501 -0.56935,1.06384 -1.80685,1.92737 -2.75,1.91895 -0.94315,-0.008 -2.29092,-0.38089 -2.99505,-0.8277 z m 19.22544,-0.43916 c -0.2706,-0.7052 -0.36898,-9.5927 -0.21861,-19.75 l 0.2734,-18.46783 11.60228,-0.28046 c 9.28245,-0.22438 11.84828,0.016 12.83262,1.20201 0.67668,0.81536 0.94348,2.38627 0.59289,3.49091 -0.5593,1.76217 -1.64226,2.04393 -8.83262,2.29798 l -8.19517,0.28956 v 4 4 l 7.5,0.5 7.5,0.5 v 3 3 l -7.5,0.5 -7.5,0.5 v 4.5 4.5 l 8.19517,0.28956 c 7.19036,0.25405 8.27332,0.53581 8.83262,2.29798 0.35059,1.10464 0.0952,2.66184 -0.56762,3.46045 -0.92461,1.11408 -3.86025,1.45201 -12.614,1.45201 -8.35735,0 -11.54054,-0.34295 -11.90096,-1.28217 z m 28.09999,0.3553 c -0.35338,-0.57177 1.17939,-3.72244 3.40615,-7.00149 2.22676,-3.27904 4.04865,-6.45434 4.04865,-7.05622 0,-0.60188 -1.575,-3.43306 -3.5,-6.29152 -1.925,-2.85846 -3.5,-5.76571 -3.5,-6.46055 0,-0.79861 1.41352,-1.26335 3.84253,-1.26335 3.36577,0 4.07639,0.43426 5.7274,3.5 1.03668,1.925 2.4131,3.5 3.0587,3.5 0.6456,0 2.10309,-1.575 3.23887,-3.5 1.7406,-2.95011 2.62024,-3.5 5.59877,-3.5 2.18023,0 3.53373,0.48389 3.53373,1.26335 0,0.69484 -1.575,3.60209 -3.5,6.46055 -1.925,2.85846 -3.5,5.78346 -3.5,6.5 0,0.71654 1.61001,3.69352 3.5778,6.61552 1.96779,2.922 3.33191,5.95349 3.03138,6.73665 -0.30052,0.78316 -1.49012,1.42393 -2.64354,1.42393 -1.15342,0 -2.90582,-0.4328 -3.89423,-0.96178 -0.98841,-0.52898 -2.36342,-2.32898 -3.05558,-4 -0.69216,-1.67102 -1.80348,-3.03822 -2.46961,-3.03822 -0.66612,0 -2.29979,1.6875 -3.63036,3.75 -1.8249,2.82874 -3.19418,3.82526 -5.5737,4.05636 -1.73495,0.1685 -3.44359,-0.16146 -3.79696,-0.73323 z m 33.48482,-0.35244 c -1.3585,-0.68741 -3.53542,-2.81827 -4.83761,-4.73526 -2.00922,-2.95782 -2.30951,-4.42891 -1.98373,-9.71808 0.32226,-5.23192 0.8505,-6.71969 3.28998,-9.26595 1.59835,-1.66831 4.5167,-3.46699 6.48524,-3.99706 2.30991,-0.622 4.83549,-0.61688 7.12189,0.0144 1.9485,0.53801 4.45475,1.99138 5.56945,3.22972 1.11471,1.23834 2.28363,2.98419 2.5976,3.87966 0.31398,0.89548 0.066,2.13298 -0.55098,2.75 -0.61703,0.61703 -1.85342,1.12186 -2.74755,1.12186 -0.89412,0 -2.68256,-1.125 -3.97431,-2.5 -1.29175,-1.375 -3.07006,-2.5 -3.95181,-2.5 -0.88175,0 -2.60331,0.70052 -3.82568,1.5567 -1.787,1.25167 -2.22251,2.52536 -2.22251,6.5 0,3.60997 0.53945,5.48275 2,6.9433 1.1,1.1 2.61431,2 3.36514,2 0.75083,0 2.54769,-0.93019 3.99303,-2.0671 1.56363,-1.22995 3.71319,-1.93867 5.30774,-1.75 1.47392,0.17441 2.86643,0.88522 3.09447,1.5796 0.22804,0.69437 -1.15475,2.83187 -3.07288,4.75 -3.03152,3.03152 -4.12163,3.48557 -8.3375,3.47276 -2.6675,-0.008 -5.96149,-0.57717 -7.31998,-1.26457 z m 22.41519,-0.003 c -0.2706,-0.7052 -0.36898,-9.5927 -0.21861,-19.75 l 0.2734,-18.46769 2.89149,-0.33008 c 1.64233,-0.18747 3.25577,0.24454 3.73469,1 0.46376,0.73155 0.85009,3.50333 0.85851,6.15954 l 0.0153,4.82945 3.25,-0.7759 c 1.7875,-0.42674 4.57882,-0.69844 6.20294,-0.60378 1.65128,0.0962 4.07568,1.29384 5.5,2.71688 2.35097,2.34886 2.5734,3.35439 2.88914,13.06092 0.24111,7.41244 -0.0288,10.96298 -0.91441,12.03012 -0.69106,0.83268 -2.42,1.37871 -3.84207,1.21341 -2.55815,-0.29737 -2.58862,-0.40277 -2.87032,-9.927 -0.24229,-8.19185 -0.58778,-9.90069 -2.31834,-11.46683 -1.85408,-1.67791 -2.27037,-1.70776 -4.71528,-0.3381 -2.57532,1.44273 -2.69317,1.87625 -2.97204,10.93278 -0.18467,5.99737 -0.73074,9.71033 -1.5,10.19922 -0.66529,0.42281 -2.23624,0.77564 -3.491,0.78406 -1.25477,0.008 -2.5028,-0.56167 -2.77341,-1.26686 z m 31.36088,-1.75789 c -2.5347,-2.53471 -2.93553,-3.56276 -2.4112,-6.18439 0.34587,-1.72937 1.30577,-3.89229 2.13309,-4.80647 0.82733,-0.91419 3.23669,-2.18121 5.35415,-2.81562 2.11745,-0.6344 5.0352,-1.15346 6.48389,-1.15346 1.95159,0 2.63398,-0.50903 2.63398,-1.96482 0,-1.08065 -0.95398,-2.47537 -2.11995,-3.09937 -1.73528,-0.9287 -2.63519,-0.75363 -4.9595,0.96481 -1.56176,1.1548 -3.98279,2.09952 -5.38006,2.09952 -2.02422,0 -2.54049,-0.4942 -2.54049,-2.43191 0,-1.57244 1.0837,-3.20356 3.06641,-4.61538 2.15592,-1.53515 4.53116,-2.18348 7.99943,-2.18348 2.92122,0 5.97101,0.68012 7.47822,1.66768 1.39987,0.91723 2.99011,2.83786 3.53387,4.26807 0.54377,1.43021 0.86118,7.14417 0.70537,12.6977 -0.27172,9.6846 -0.37752,10.11068 -2.58834,10.42408 -1.26778,0.17972 -2.92651,-0.189 -3.68608,-0.81939 -0.99673,-0.82721 -1.93708,-0.84857 -3.37922,-0.0768 -1.099,0.58816 -3.63738,1.06939 -5.64084,1.06939 -2.72474,0 -4.40874,-0.76607 -6.68273,-3.04006 z m 12.94391,-4.23748 c 0.6875,-0.53196 1.25,-2.09336 1.25,-3.46976 0,-2.27456 -0.28742,-2.44508 -3.15469,-1.87162 -1.73508,0.34701 -3.76008,1.13336 -4.5,1.74744 -0.73992,0.61408 -1.34531,1.47927 -1.34531,1.92264 0,0.44337 0.68802,1.49415 1.52894,2.33506 0.84848,0.84849 2.2949,1.25624 3.25,0.9162 0.94658,-0.33701 2.28356,-1.04799 2.97106,-1.57996 z m 14.96258,6.65692 c -0.39192,-0.39191 -0.71258,-6.93757 -0.71258,-14.54591 v -13.83333 h 2.8 c 1.54,0 3.23391,0.43391 3.76425,0.96425 0.61901,0.61901 2.48947,0.43878 5.22406,-0.50336 3.65459,-1.25911 4.72918,-1.27151 7.56348,-0.0873 1.97152,0.82375 3.79138,2.55779 4.51316,4.30034 0.75767,1.82916 1.1022,6.82493 0.92227,13.373 l -0.28722,10.45307 h -3 -3 l -0.5,-9.83395 c -0.41838,-8.22868 -0.81686,-10.0651 -2.44113,-11.25 -1.06762,-0.77883 -2.44411,-1.41605 -3.05887,-1.41605 -0.61476,0 -1.99125,0.63722 -3.05887,1.41605 -1.62427,1.1849 -2.02275,3.02132 -2.44113,11.25 -0.48972,9.63181 -0.55216,9.84003 -3.03742,10.12986 -1.39559,0.16275 -2.85809,-0.0247 -3.25,-0.41667 z m 63.9023,-1.46754 c -1.46016,-1.14856 -3.32085,-3.37621 -4.13486,-4.95034 -0.81401,-1.57412 -1.48002,-4.95388 -1.48002,-7.51057 0,-2.55669 0.73568,-6.19886 1.63484,-8.09371 0.89917,-1.89485 3.03637,-4.16994 4.74934,-5.05575 1.71297,-0.88581 5.04462,-1.58138 7.40367,-1.54572 2.35905,0.0357 5.43444,0.81524 6.83419,1.7324 1.39976,0.91715 3.20784,3.25392 4.01796,5.19282 0.81013,1.9389 1.33504,4.7164 1.16648,6.17222 -0.30214,2.60949 -0.42901,2.65102 -8.96391,2.93453 -6.14353,0.20408 -8.80817,0.68038 -9.17653,1.64031 -0.28549,0.744 0.36538,2.30209 1.44639,3.46242 1.10789,1.18917 3.20404,2.10969 4.80408,2.10969 1.56123,0 3.3988,-0.675 4.08349,-1.5 0.68469,-0.825 2.53979,-1.5 4.12244,-1.5 2.16628,0 2.87756,0.47239 2.87756,1.91111 0,1.0511 -1.38453,3.0761 -3.07673,4.5 -2.46121,2.07097 -4.13469,2.58889 -8.36514,2.58889 -3.84875,0 -6.01114,-0.5685 -7.94325,-2.0883 z m 12.38512,-17.38865 c 0,-0.81232 -1.125,-2.21407 -2.5,-3.11501 -2.31587,-1.51741 -2.68413,-1.51741 -5,0 -1.375,0.90094 -2.5,2.30269 -2.5,3.11501 0,1.10567 1.25691,1.47695 5,1.47695 3.74309,0 5,-0.37128 5,-1.47695 z"
       id="path1" />
  </g>
</svg>
